<?xml version="1.0" encoding="utf-8"?>
<!-- Generator: Adobe Illustrator 16.0.0, SVG Export Plug-In . SVG Version: 6.00 Build 0)  -->
<!DOCTYPE svg PUBLIC "-//W3C//DTD SVG 1.1//EN" "http://www.w3.org/Graphics/SVG/1.1/DTD/svg11.dtd">
<svg version="1.1"
	 id="Bambora_logo_1_" xmlns:dc="http://purl.org/dc/elements/1.1/" xmlns:cc="http://creativecommons.org/ns#" xmlns:rdf="http://www.w3.org/1999/02/22-rdf-syntax-ns#" xmlns:svg="http://www.w3.org/2000/svg"
	 xmlns="http://www.w3.org/2000/svg" xmlns:xlink="http://www.w3.org/1999/xlink" x="0px" y="0px" width="377.946px"
	 height="176.146px" viewBox="0 0 377.946 176.146" enable-background="new 0 0 377.946 176.146" xml:space="preserve">
<path id="Bambora_logo" fill="#763EA2" d="M22.509,62.321c-4.043,0-7.401,1.068-10.148,2.823V47.951c0,0-6.153,1.907-12.361,1.907
	v50.157c6.208,0,12.361-1.907,12.361-1.907c2.748,1.755,6.105,2.823,10.148,2.823c9.996,0,18.389-8.317,18.389-19.381
	C40.898,70.562,32.505,62.321,22.509,62.321z M20.068,90.782c-2.748,0-5.418-0.764-7.707-3.434V75.903
	c2.289-2.671,4.959-3.51,7.707-3.51c5.036,0,8.698,4.12,8.698,9.156C28.766,86.738,25.104,90.782,20.068,90.782z M171.436,62.321
	c-4.044,0-7.401,1.068-10.149,2.823V47.951c0,0-6.152,1.907-12.361,1.907v50.157c6.209,0,12.361-1.907,12.361-1.907
	c2.748,1.755,6.105,2.823,10.149,2.823c9.995,0,18.389-8.317,18.389-19.381C189.825,70.562,181.431,62.321,171.436,62.321z
	 M168.995,90.782c-2.748,0-5.418-0.764-7.708-3.434V75.903c2.29-2.671,4.96-3.51,7.708-3.51c5.036,0,8.697,4.12,8.697,9.156
	C177.692,86.738,174.031,90.782,168.995,90.782z M210.904,62.168c-11.675,0-20.066,8.165-20.066,19.304
	c0,11.294,8.392,19.687,20.066,19.687s20.068-8.393,20.068-19.687C230.972,70.333,222.579,62.168,210.904,62.168z M210.98,90.478
	c-5.034,0-8.392-3.969-8.392-8.928c0-4.807,3.357-8.699,8.392-8.699c4.96,0,8.317,3.892,8.317,8.699
	C219.297,86.509,215.94,90.478,210.98,90.478z M257.622,74.148c-6.028,0.228-9.843,1.831-12.743,4.73v21.136h-12.36V64.916
	c6.207,0,12.36-1.907,12.36-1.907v3.967c3.282-2.823,7.249-4.578,12.743-4.578V74.148z M146.799,78.879v21.136h-12.438V80.863
	c0-5.265-2.519-7.783-6.638-7.783c-1.908,0-3.815,0.84-5.646,3.053c0.076,0.915,0.152,1.83,0.152,2.746v21.136h-12.362V80.863
	c0-5.265-2.594-7.783-6.638-7.783c-1.907,0-3.738,0.916-5.57,3.281v23.654h-12.36V63.313c0,0,6.153,1.907,12.36,1.907
	c2.519-2.136,5.113-3.357,9.233-3.357c4.654,0,8.622,1.755,11.369,4.96c3.892-3.434,7.63-4.96,13.124-4.96
	C140.236,61.863,146.799,68.35,146.799,78.879z M60.299,62.168c-9.996,0-18.389,8.241-18.389,19.304
	c0,10.988,8.394,19.305,18.389,19.305c4.044,0,7.401-1.067,10.148-2.823c0,0,6.153,2.061,12.361,2.061V63.008
	c0,0-6.208,1.984-12.361,1.984C67.701,63.237,64.343,62.168,60.299,62.168z M70.447,87.196c-2.289,2.67-4.96,3.433-7.706,3.433
	c-5.036,0-8.699-4.044-8.699-9.156c0-5.112,3.663-9.232,8.699-9.232c2.746,0,5.417,0.839,7.706,3.51V87.196z M298.167,100.015
	V63.008c0,0-6.207,1.984-12.359,1.984c-2.748-1.755-6.105-2.824-10.15-2.824c-9.996,0-18.389,8.241-18.389,19.304
	c0,10.988,8.393,19.305,18.389,19.305c4.045,0,7.402-1.067,10.15-2.823C285.807,97.954,291.959,100.015,298.167,100.015z
	 M278.098,90.629c-5.034,0-8.697-4.044-8.697-9.156c0-5.112,3.663-9.232,8.697-9.232c2.748,0,5.42,0.839,7.709,3.51v11.446
	C283.517,89.866,280.846,90.629,278.098,90.629z M285.67,147.391c2.179,0.843,4.372,1.63,6.582,2.37
	c-0.487,1.301-0.948,2.539-1.387,3.721c-2.023-0.68-4.035-1.4-6.032-2.166C285.1,150.048,285.378,148.739,285.67,147.391z
	 M288.973,132.792c3.127,1.192,6.289,2.266,9.482,3.219c-0.644,1.135-1.275,2.322-1.896,3.573c-2.857-0.872-5.691-1.839-8.496-2.896
	C288.356,135.416,288.661,134.112,288.973,132.792z M281.265,169.487c1.123,0.439,2.186,0.869,3.315,1.283
	c-0.6,1.712-1.594,4.551-1.886,5.376h-2.613C280.257,175.105,280.976,171.1,281.265,169.487z M287.29,140.077
	c2.563,0.986,5.148,1.895,7.754,2.729c-0.525,1.181-1.041,2.402-1.545,3.673c-2.379-0.768-4.741-1.6-7.084-2.49
	C286.695,142.718,286.987,141.411,287.29,140.077z M284.124,154.726c1.832,0.713,3.676,1.393,5.527,2.035
	c-0.49,1.324-0.947,2.567-1.371,3.727c-1.66-0.578-3.311-1.186-4.955-1.816C283.577,157.415,283.841,156.099,284.124,154.726z
	 M282.651,162.091c1.475,0.573,2.953,1.124,4.439,1.656c-0.502,1.383-0.949,2.621-1.348,3.732c-1.287-0.461-2.569-0.933-3.847-1.425
	C282.125,164.833,282.375,163.511,282.651,162.091z M347.905,116.544c1.746-0.249,3.496-0.545,5.246-0.881l0.354,3.967
	c-2.162,0.408-4.324,0.751-6.482,1.032L347.905,116.544z M340.059,79.882c-1.695,0.385-3.391,0.7-5.084,0.963
	c1.107-1.407,2.176-2.939,3.197-4.618c0.336-0.072,0.672-0.138,1.008-0.215c5.203-1.182,10.404-1.982,15.578-2.435
	c-0.299,1.365-0.598,2.717-0.896,4.062C349.274,78.093,344.667,78.834,340.059,79.882z M355.682,69.339
	c-4.941,0.314-9.889,0.938-14.822,1.872c0.512-1.089,1.012-2.224,1.49-3.422c0.123-0.31,0.246-0.627,0.369-0.94
	c4.605-0.773,9.219-1.29,13.826-1.542C356.258,66.659,355.969,68.003,355.682,69.339z M349.766,107.853
	c0.881-0.168,1.76-0.348,2.639-0.537l0.355,3.979c-1.295,0.276-2.592,0.534-3.895,0.762L349.766,107.853z M357.418,61.178
	c-4.32,0.142-8.648,0.505-12.973,1.089c0.496-1.366,0.986-2.764,1.473-4.188c4.113-0.492,8.227-0.794,12.334-0.898
	C357.975,58.521,357.698,59.853,357.418,61.178z M361.073,1.471c0.193-0.989,1.154-1.633,2.143-1.438
	c0.988,0.194,1.635,1.154,1.438,2.143c-0.193,0.991-1.152,1.633-2.143,1.438C361.522,3.419,360.877,2.458,361.073,1.471z
	 M343.602,87.657c-5.967,1.356-11.938,2.015-17.82,2.038c1.68-1.252,3.324-2.615,4.92-4.144c3.988-0.27,8.004-0.85,12.021-1.764
	c3.391-0.771,6.783-1.364,10.164-1.798c-0.311,1.387-0.625,2.763-0.936,4.127C349.165,86.517,346.379,87.026,343.602,87.657z
	 M351.661,99.011l0.35,3.911c-0.416,0.087-0.83,0.173-1.246,0.267L351.661,99.011z M328.665,105.69
	c-7.697,0-15.336-0.92-22.785-2.713c1.375-1.118,2.785-2.146,4.215-3.123c12.633,2.563,25.766,2.498,38.721-0.305
	c-0.34,1.436-0.682,2.859-1.021,4.268C341.424,105.068,335.026,105.69,328.665,105.69z M327.157,97.683
	c-4.166,0-8.289-0.295-12.35-0.861c1.822-1.125,3.656-2.231,5.482-3.387c2.273,0.184,4.564,0.281,6.867,0.281
	c6.307,0,12.707-0.698,19.109-2.154c1.547-0.351,3.098-0.662,4.648-0.939c-0.328,1.419-0.658,2.829-0.984,4.224
	c-0.93,0.183-1.857,0.374-2.785,0.585C340.45,96.953,333.75,97.683,327.157,97.683z M290.938,125.608
	c3.899,1.46,7.855,2.726,11.857,3.791c-0.82,1.067-1.633,2.216-2.43,3.451c-3.558-0.99-7.08-2.133-10.557-3.427
	C290.166,128.094,290.542,126.824,290.938,125.608z M315.221,143.896c-2.43-0.387-4.85-0.837-7.258-1.354l-0.77-4.24
	c2.607,0.592,5.23,1.105,7.865,1.539L315.221,143.896z M357.18,160.683c-1.377,0.148-2.754,0.278-4.133,0.391l-0.758-3.927
	c1.512-0.118,3.023-0.257,4.535-0.419L357.18,160.683z M356.45,152.528c-1.65,0.199-3.303,0.375-4.955,0.519l-0.758-3.915
	c1.787-0.149,3.574-0.343,5.359-0.557L356.45,152.528z M357.909,168.81c-1.104,0.106-2.207,0.199-3.309,0.282l-0.758-3.919
	c1.238-0.092,2.475-0.195,3.711-0.316L357.909,168.81z M354.249,127.923c-2.471,0.416-4.945,0.75-7.42,1.015l-0.75-3.877
	l0.006-0.029c2.605-0.272,5.207-0.632,7.809-1.075L354.249,127.923z M355.719,144.356c-1.926,0.26-3.854,0.476-5.779,0.654
	l-0.758-3.914c2.063-0.186,4.123-0.416,6.184-0.695L355.719,144.356z M358.28,172.964l0.291,3.183h-2.6l-0.578-2.957
	C356.362,173.122,357.311,173.048,358.28,172.964z M354.985,136.153c-2.199,0.329-4.4,0.603-6.602,0.82l-0.756-3.912
	c2.336-0.225,4.67-0.514,7.004-0.867L354.985,136.153z M361.459,41.199c-0.26,1.328-0.52,2.647-0.777,3.961
	c-3.576-0.06-7.162,0.013-10.752,0.22c0.395-1.339,0.781-2.686,1.162-4.037C354.553,41.175,358.01,41.124,361.459,41.199z
	 M355.311,25.201c3.043,0.008,6.08,0.104,9.109,0.279c-0.24,1.317-0.482,2.629-0.723,3.933c-3.113-0.17-6.234-0.261-9.361-0.25
	C354.67,27.832,354.997,26.511,355.311,25.201z M357.157,17.253c2.895,0.066,5.781,0.208,8.662,0.418
	c-0.23,1.313-0.463,2.623-0.697,3.924c-2.947-0.208-5.902-0.333-8.865-0.387C356.569,19.871,356.868,18.551,357.157,17.253z
	 M348.659,49.609c3.748-0.303,7.492-0.455,11.227-0.456c-0.266,1.33-0.533,2.655-0.801,3.97c-3.898,0.025-7.807,0.222-11.715,0.583
	C347.805,52.356,348.235,50.988,348.659,49.609z M377.954,12.995l-1.385,2.321l-4.803-0.167c-4.92-1.068-9.756-1.887-13.635-2.481
	c0.449-2.294,0.379-3.19,0.412-4.5c0.016-0.532-0.115-1.125-1.055-1.311c-0.754-0.149-1.963-0.549-2.576-1.375
	c-1.045-1.406-0.184-3.579-0.184-3.579s2.555,0.109,3.6,1.516c0.596,0.801,0.572,1.938,0.439,2.605
	c-0.174,0.881,0.117,1.429,0.793,1.563C361.274,7.925,369.702,9.699,377.954,12.995z M362.967,33.316
	c-0.248,1.321-0.498,2.637-0.748,3.947c-3.32-0.124-6.648-0.148-9.982-0.053c0.359-1.332,0.713-2.662,1.061-3.988
	C356.528,33.153,359.752,33.184,362.967,33.316z M346.682,108.394c-0.346,1.404-0.688,2.794-1.029,4.17
	c-4.287,0.615-8.604,0.979-12.904,1.072c-0.447,0.01-1.971,0.024-2.281,0.024c-10.451,0.001-20.83-1.569-30.781-4.581
	c0.967-1.17,1.971-2.248,3-3.255c9.297,2.626,18.959,3.954,28.68,3.865c0.432-0.005,0.863-0.011,1.295-0.021h0.002
	C337.336,109.567,342.03,109.135,346.682,108.394z M342.43,125.354c-0.35,1.363-0.697,2.714-1.041,4.043
	c-2.572,0.16-5.139,0.25-7.703,0.25c-1.908,0-3.813-0.049-5.713-0.137c-0.287-1.469-0.656-2.822-1.115-4.038
	C332.024,125.771,337.223,125.735,342.43,125.354z M315.846,159.643c-1.65-0.265-3.297-0.558-4.938-0.874l-0.764-4.203
	c1.84,0.376,3.688,0.717,5.541,1.023L315.846,159.643z M316.159,167.515c-1.264-0.201-2.523-0.424-3.783-0.656l-0.758-4.182
	c1.457,0.283,2.916,0.543,4.379,0.785L316.159,167.515z M316.321,171.337l0.195,4.81h-2.449l-0.969-5.376
	C314.17,170.97,315.245,171.159,316.321,171.337z M314.909,136.022c-2.805-0.445-5.592-0.985-8.363-1.611
	c0.162-0.385,0.811-1.878,1.869-3.65c2.102,0.457,4.213,0.861,6.334,1.211L314.909,136.022z M315.534,151.77
	c-2.041-0.325-4.072-0.698-6.098-1.11l-0.764-4.21c2.223,0.476,4.459,0.896,6.699,1.269L315.534,151.77z M326.061,172.661
	c1.184,0.124,2.369,0.233,3.557,0.334c-0.299,1.09-0.586,2.145-0.861,3.151h-2.986C325.77,176.146,325.831,175.313,326.061,172.661z
	 M314.442,124.283l0.154,3.866c-1.291-0.205-2.578-0.433-3.863-0.678C311.799,126.206,313.043,125.046,314.442,124.283z
	 M308.924,123.052c-1.182,0.928-2.363,2.021-3.535,3.273c-4.492-1.069-8.93-2.395-13.295-3.973c0.496-1.285,1.017-2.504,1.558-3.658
	C298.655,120.493,303.756,121.944,308.924,123.052z M335.368,133.664c1.645,0,3.291-0.044,4.939-0.106
	c-0.357,1.359-0.709,2.695-1.057,4.015c-1.297,0.038-2.596,0.061-3.891,0.061c-2.203,0-4.398-0.058-6.592-0.169
	c-0.035-1.373-0.113-2.705-0.234-3.984C330.807,133.602,333.084,133.664,335.368,133.664z M328.762,141.387
	c3.129,0.192,6.266,0.277,9.41,0.251c-0.361,1.35-0.715,2.678-1.066,3.98c-0.023,0-0.049,0-0.072,0
	c-2.826,0-5.646-0.092-8.457-0.262C328.667,144.017,328.731,142.689,328.762,141.387z M332.223,117.665
	c4.084,0,8.201-0.227,12.332-0.69c-0.346,1.38-0.689,2.74-1.029,4.087c-3.787,0.376-7.559,0.571-11.305,0.571
	c-2.602,0.001-5.191-0.092-7.766-0.268c-1.387-1.503-3.152-2.356-5.367-2.356c-1.711,0-3.484,0.376-5.285,1.125
	c-6.322-1.031-12.512-2.588-18.51-4.629c0.689-1.229,1.408-2.381,2.15-3.461C308.512,115.708,320.233,117.665,332.223,117.665z
	 M328.25,149.251c2.586,0.189,5.18,0.309,7.779,0.358c-0.363,1.341-0.719,2.656-1.07,3.941c-2.369-0.061-4.732-0.175-7.09-0.348
	C327.989,151.952,328.116,150.635,328.25,149.251z M326.766,164.868c1.658,0.158,3.316,0.292,4.979,0.4
	c-0.373,1.348-0.73,2.652-1.078,3.908c-1.422-0.098-2.844-0.221-4.262-0.356C326.508,167.675,326.627,166.365,326.766,164.868z
	 M327.5,157.069c2.123,0.182,4.254,0.314,6.387,0.406c-0.369,1.343-0.727,2.651-1.078,3.926c-1.896-0.092-3.791-0.219-5.682-0.381
	C327.241,159.802,327.366,158.481,327.5,157.069z"/>
</svg>
