<svg xmlns="http://www.w3.org/2000/svg" viewBox="0 0 284 74.6">
  <defs>
    <style>
      .cls-1 {
        fill: #41b4d2;
      }

      .cls-2 {
        fill: #4a4f55;
      }
    </style>
  </defs>
  <g id="Layer_2" data-name="Layer 2">
    <g id="Protection_Zone" data-name="Protection Zone">
      <g>
        <g>
          <path class="cls-1" d="M148.8,71.8c0-2.2,1.8-2.6,3.6-2.8s2.3-.2,2.3-.9h0a1.5,1.5,0,0,0-1.7-1.7,2.3,2.3,0,0,0-2.2,1.3l-1.7-.4a3.7,3.7,0,0,1,3.8-2.3c1.5,0,3.6.5,3.6,3.2v6.2h-1.7V73.1h-.1a2.8,2.8,0,0,1-2.7,1.5C150.2,74.6,148.8,73.6,148.8,71.8Zm5.9-.8V69.8c-.2.3-1.6.5-2.2.5s-1.9.5-1.9,1.5.7,1.3,1.7,1.3A2.1,2.1,0,0,0,154.7,71Z"/>
          <path class="cls-1" d="M159.2,62h2l2.4,9.6h.1l2.5-9.6h2l2.5,9.6h.1l2.4-9.6h2l-3.5,12.4h-1.8l-2.7-9.3h-.1l-2.6,9.3h-1.9Z"/>
          <path class="cls-1" d="M175.4,69.8c0-2.9,1.8-4.8,4.4-4.8s4.3,1.9,4.3,4.8-1.7,4.8-4.3,4.8S175.4,72.7,175.4,69.8Zm6.9,0c0-1.8-.8-3.3-2.5-3.3s-2.5,1.5-2.5,3.3.8,3.3,2.5,3.3S182.3,71.6,182.3,69.8Z"/>
          <path class="cls-1" d="M186.1,65.1h1.8v1.5h.1a2.4,2.4,0,0,1,2.3-1.6h.8v1.7h-.9a2.2,2.2,0,0,0-2.3,2.1v5.7h-1.8Z"/>
          <path class="cls-1" d="M194.5,74.4h-1.8V62h1.8Z"/>
          <path class="cls-1" d="M196.5,69.8c0-3.1,1.7-4.8,3.9-4.8a2.7,2.7,0,0,1,2.7,1.6h.1V62H205V74.4h-1.7V72.9h-.2a2.8,2.8,0,0,1-2.7,1.7C198.2,74.6,196.5,72.8,196.5,69.8Zm6.8-.1c0-1.9-.9-3.2-2.5-3.2s-2.4,1.4-2.4,3.2.8,3.3,2.4,3.3S203.3,71.7,203.3,69.7Z"/>
          <path class="cls-1" d="M209.4,74.4h-1.8V62h1.8Z"/>
          <path class="cls-1" d="M211.7,62.6a1.1,1.1,0,1,1,1.1,1.1A1.1,1.1,0,0,1,211.7,62.6Zm.2,2.5h1.8v9.3h-1.8Z"/>
          <path class="cls-1" d="M217.9,74.4h-1.8V65.1h1.8v1.5h.1a2.6,2.6,0,0,1,2.7-1.6c1.9,0,3.2,1.2,3.2,3.5v5.9h-1.8V68.7a2,2,0,0,0-2-2.2,2.2,2.2,0,0,0-2.2,2.4Z"/>
          <path class="cls-1" d="M225.9,69.8c0-2.9,1.7-4.8,4.3-4.8s4.1,1.3,4.1,4.6v.7h-6.6c.1,1.8,1.1,2.8,2.7,2.8a2.1,2.1,0,0,0,2.1-1.3l1.7.3c-.4,1.5-1.8,2.5-3.9,2.5S225.9,72.7,225.9,69.8Zm6.6-.9a2.2,2.2,0,0,0-2.3-2.4,2.5,2.5,0,0,0-2.5,2.4Z"/>
          <path class="cls-1" d="M237.6,62h1.8v4.6h.1a2.8,2.8,0,0,1,2.7-1.6c2.2,0,3.9,1.7,3.9,4.8s-1.6,4.8-3.9,4.8a3,3,0,0,1-2.7-1.7h-.1v1.5h-1.8Zm4.2,11c1.6,0,2.5-1.4,2.5-3.3s-.9-3.2-2.5-3.2-2.4,1.3-2.4,3.2S240.3,73,241.8,73Z"/>
          <path class="cls-1" d="M248.1,65.1h1.8v1.5h.1a2.4,2.4,0,0,1,2.4-1.6h.7v1.7h-.9a2.1,2.1,0,0,0-2.2,2.1v5.7h-1.9Z"/>
          <path class="cls-1" d="M254.2,71.8c0-2.2,1.8-2.6,3.5-2.8s2.4-.2,2.4-.9h0c0-1.1-.6-1.7-1.8-1.7a2.1,2.1,0,0,0-2.1,1.3l-1.7-.4c.6-1.7,2.1-2.3,3.8-2.3s3.6.5,3.6,3.2v6.2h-1.8V73.1h0a3,3,0,0,1-2.8,1.5A2.8,2.8,0,0,1,254.2,71.8Zm5.9-.8V69.8a4.8,4.8,0,0,1-2.2.5c-1.1.2-1.9.5-1.9,1.5s.7,1.3,1.7,1.3A2.2,2.2,0,0,0,260.1,71Z"/>
          <path class="cls-1" d="M266.1,74.4h-1.8V65.1h1.8v1.5h.1a2.6,2.6,0,0,1,2.7-1.6c1.9,0,3.2,1.2,3.2,3.5v5.9h-1.8V68.7a2,2,0,0,0-2-2.2,2.2,2.2,0,0,0-2.2,2.4Z"/>
          <path class="cls-1" d="M274.1,69.8c0-3.1,1.7-4.8,3.9-4.8a2.7,2.7,0,0,1,2.7,1.6h.1V62h1.8V74.4h-1.7V72.9h-.2a2.8,2.8,0,0,1-2.7,1.7C275.8,74.6,274.1,72.8,274.1,69.8Zm6.7-.1c0-1.9-.8-3.2-2.4-3.2s-2.4,1.4-2.4,3.2.8,3.3,2.4,3.3S280.8,71.7,280.8,69.7Z"/>
        </g>
        <g>
          <path class="cls-2" d="M39,32c0,10.5-8,18.5-17.6,18.5a18.1,18.1,0,0,1-9.6-2.7h0A46.4,46.4,0,0,1,0,49.6V1.8A46.4,46.4,0,0,0,11.8,0V16.4a17.2,17.2,0,0,1,9.6-2.7C31,13.7,39,21.5,39,32ZM27.4,32a8.4,8.4,0,0,0-8.3-8.7,9.2,9.2,0,0,0-7.3,3.3V37.5a8.9,8.9,0,0,0,7.3,3.3C23.9,40.8,27.4,36.9,27.4,32Z"/>
          <path class="cls-2" d="M180.8,32c0,10.5-8,18.5-17.5,18.5a18.2,18.2,0,0,1-9.7-2.7h0a45.2,45.2,0,0,1-11.7,1.8V1.8A45.2,45.2,0,0,0,153.6,0V16.4a17.3,17.3,0,0,1,9.7-2.7C172.8,13.7,180.8,21.5,180.8,32Zm-11.6,0c0-4.8-3.4-8.7-8.2-8.7a9.2,9.2,0,0,0-7.4,3.3V37.5a8.9,8.9,0,0,0,7.4,3.3C165.8,40.8,169.2,36.9,169.2,32Z"/>
          <path class="cls-2" d="M220,31.9c0,10.8-8,18.8-19.1,18.8s-19.1-8-19.1-18.8,8-18.4,19.1-18.4S220,21.3,220,31.9Zm-11.1.1c0-4.6-3.2-8.3-7.9-8.3s-8,3.7-8,8.3,3.2,8.5,8,8.5S208.9,36.7,208.9,32Z"/>
          <path class="cls-2" d="M233.2,14.3v3.8a17.7,17.7,0,0,1,12.2-4.3V25c-5.8.2-9.4,1.7-12.2,4.5V49.6H221.5V16.2A43,43,0,0,0,233.2,14.3Z"/>
          <path class="cls-2" d="M93,16.4a46.4,46.4,0,0,1-11.8-1.8v35H93V27.1c1.8-2.3,3.5-3.2,5.3-3.2,3.9,0,6.3,2.4,6.3,7.4V49.6h11.8V29.5c0-.9-.1-1.8-.1-2.7a6.7,6.7,0,0,1,5.4-2.9c3.9,0,6.3,2.4,6.3,7.4V49.6h11.8V29.5c0-10.1-6.2-16.2-14.7-16.2A17.1,17.1,0,0,0,112.6,18a13.6,13.6,0,0,0-10.8-4.7A12.6,12.6,0,0,0,93,16.4Z"/>
          <path class="cls-2" d="M78.9,49.6a42.2,42.2,0,0,1-11.8-2h0a17.3,17.3,0,0,1-9.7,2.7c-9.5,0-17.5-7.9-17.5-18.4s8-18.4,17.5-18.4a18.2,18.2,0,0,1,9.7,2.7h0a44.2,44.2,0,0,0,11.8-1.9ZM67.1,37.4V26.5a9,9,0,0,0-7.3-3.4c-4.8,0-8.3,4-8.3,8.8s3.5,8.8,8.3,8.8A9.2,9.2,0,0,0,67.1,37.4Z"/>
          <path class="cls-2" d="M284,49.6a42.2,42.2,0,0,1-11.8-2h0a17.2,17.2,0,0,1-9.6,2.7c-9.6,0-17.6-7.9-17.6-18.4s8-18.4,17.6-18.4a18.1,18.1,0,0,1,9.6,2.7h0A44.2,44.2,0,0,0,284,14.3ZM272.2,37.4V26.5a9,9,0,0,0-7.3-3.4c-4.8,0-8.3,4-8.3,8.8s3.5,8.8,8.3,8.8A9.2,9.2,0,0,0,272.2,37.4Z"/>
        </g>
      </g>
    </g>
  </g>
</svg>
