<svg xmlns="http://www.w3.org/2000/svg" viewBox="0 0 225.6 23">
    <g id="Layer_2" data-name="Layer 2">
        <g id="Layer_1-2" data-name="Layer 1">
            <g>
                <path d="M188,5.4a23.9,23.9,0,0,0-2.2,2.3c3.4,3.4,5.8,8.6,6.7,14.7h3.3a30.6,30.6,0,0,0-5.4-14.2A16.1,16.1,0,0,0,188,5.4"
                      style="fill: #46beaa"/>
                <path d="M184,10a21.1,21.1,0,0,0-1.6,3,20.7,20.7,0,0,1,4,9.4h3.3a23.2,23.2,0,0,0-4.2-10.6A9,9,0,0,0,184,10"
                      style="fill: #46beaa"/>
                <path d="M180.3,22.4h3.3a17.8,17.8,0,0,0-2.4-6.2,21.6,21.6,0,0,0-.9,6.2"
                      style="fill: #46beaa"/>
                <path d="M216.2,4l-1.3-.8-.6.6a31.3,31.3,0,0,0-7.2,13.7,43.8,43.8,0,0,0-2.1-7.3,37.9,37.9,0,0,1,5.8-9L209.2.7a36.1,36.1,0,0,0-4.9,7.5,37.4,37.4,0,0,0-4-7.1L199.5,0a20,20,0,0,0-3.5.9,34.2,34.2,0,0,1,6.4,11.6c-.5,1.6-1,3.4-1.4,5.2a36,36,0,0,0-5.7-13.1A26.5,26.5,0,0,0,193.2,2a26.9,26.9,0,0,0-2.9,1.6c4.3,4.4,7.3,11.1,8.2,18.8h3.4a38.4,38.4,0,0,1,1.3-7.2,41.6,41.6,0,0,1,1.3,7.2h3.3a30.4,30.4,0,0,1,7.6-17.5l.8-.9"
                      style="fill: #46beaa"/>
                <path d="M220.5,8a11.4,11.4,0,0,0-1.1-1.1,26.6,26.6,0,0,0-7.3,15.5h1.6a25.8,25.8,0,0,1,6.2-13.8l.6-.6"
                      style="fill: #46beaa"/>
                <path d="M218,22.4h1.6a19.8,19.8,0,0,1,4.1-9.1l-.8-1.6A22.2,22.2,0,0,0,218,22.4"
                      style="fill: #46beaa"/>
                <path d="M225.3,18.7a20.1,20.1,0,0,0-1.3,3.7h1.6a23.1,23.1,0,0,0-.3-3.7"
                      style="fill: #46beaa"/>
                <polygon
                        points="82.5 0.7 77.6 0.7 77.6 22.4 91 22.4 91 18.1 82.5 18.1 82.5 0.7"
                        style="fill: #46beaa"/>
                <polygon
                        points="118.1 0.7 116.3 0.7 116.3 22.4 128 22.4 128 20.8 118.1 20.8 118.1 0.7"
                        style="fill: #46beaa"/>
                <rect x="130" y="0.7" width="1.8" height="21.75"
                      style="fill: #46beaa"/>
                <polygon
                        points="160.3 20.8 160.3 12 169.9 12 169.9 10.5 160.3 10.5 160.3 2.2 170.7 2.2 170.7 0.7 158.6 0.7 158.6 22.4 171 22.4 171 20.8 160.3 20.8"
                        style="fill: #46beaa"/>
                <polygon
                        points="152.7 20.8 152.3 20.8 139.7 0.7 136.5 0.7 136.5 22.4 138.3 22.4 138.3 2.2 138.7 2.2 151.3 22.4 154.4 22.4 154.4 0.7 152.7 0.7 152.7 20.8"
                        style="fill: #46beaa"/>
                <polygon
                        points="22.1 18.1 21.7 18.1 18.1 1.3 13 1.3 9.8 18.1 9.4 18.1 5 0.7 0 0.7 5.4 22.4 12.9 22.4 15.6 9.2 18.5 22.4 26.1 22.4 30.9 0.7 25.8 0.7 22.1 18.1"
                        style="fill: #46beaa"/>
                <path d="M110,3.7c-2.3-2.3-5.4-3.2-8.9-3.2h-8v22h8a13.8,13.8,0,0,0,5.2-.9,10.1,10.1,0,0,0,5.9-5.9,10.3,10.3,0,0,0,.7-4.6A10.3,10.3,0,0,0,110,3.7m-2.6,10.7a5.7,5.7,0,0,1-3.4,3.4,7.9,7.9,0,0,1-2.8.4H97.9V4.8h3.3a7.9,7.9,0,0,1,2.8.4,5.4,5.4,0,0,1,3.4,3.2,10.2,10.2,0,0,1,0,6"
                      style="fill: #46beaa"/>
                <path d="M47.6,1A13.6,13.6,0,0,0,37.5,1a10.8,10.8,0,0,0-5.8,6.1,11,11,0,0,0-.7,4.7A11.4,11.4,0,0,0,37.4,22a14.1,14.1,0,0,0,10.3,0,11.5,11.5,0,0,0,6.5-10.2,11.7,11.7,0,0,0-3-8.3A9.7,9.7,0,0,0,47.6,1m-5,17.6c-4.2,0-6.5-3.3-6.5-7.1s2.2-7,6.5-7,6.5,2.5,6.5,7-2.4,7.1-6.5,7.1"
                      style="fill: #46beaa"/>
                <path d="M73,12.3a7.6,7.6,0,0,0,1.1-4.5A7.6,7.6,0,0,0,73,3.7C71.3,1.2,68.4.5,65.2.5H56.7V22.4h4.9V15.7h3.7l4.6,6.7h5.7L70,14.6a6.4,6.4,0,0,0,3-2.3M68.6,9.9a3.4,3.4,0,0,1-3.1,1.7H61.6V4.8h3.9a5,5,0,0,1,1.8.2,2.7,2.7,0,0,1,1.3,1.3,4.1,4.1,0,0,1,0,3.6"
                      style="fill: #46beaa"/>
            </g>
        </g>
    </g>
</svg>
