<?xml version="1.0" encoding="utf-8"?>
<!-- Generator: Adobe Illustrator 25.4.1, SVG Export Plug-In . SVG Version: 6.00 Build 0)  -->
<svg version="1.1" id="Layer_1" xmlns="http://www.w3.org/2000/svg" xmlns:xlink="http://www.w3.org/1999/xlink" x="0px" y="0px"
	 viewBox="0 0 1000 1000"  enable-background="new 0 0 1000 1000"  xml:space="preserve" >
<style type="text/css">
	.st0{fill:#FFF;}
	.st1{fill:#45BEAA;}
</style>
	<rect width="100%" height="100%" fill="#45BEAA">
</rect>
<path class="st0" d="M363.28,510.73c-12.41-102.89-46.8-197.95-99.97-273.75c-13.98-20-28.98-38.14-44.76-54.51
	c-15.31,13.79-29.61,28.62-42.8,44.51c64.08,66.04,110.33,166.91,125.88,283.74H363.28z"/>
<path class="st0" d="M249.88,510.73c-11.7-76.84-38.64-147.64-78.92-204.97c-8.72-12.42-17.98-24.03-27.56-34.75
	c-11.86,18.46-22.38,37.9-31.41,58.22c36.67,47.01,63.69,109.98,76.02,181.5H249.88z"/>
<path class="st0" d="M89.68,391.56c-10.44,37.9-16.02,77.89-16.02,119.17h62.04C126.75,467.11,111.2,426.63,89.68,391.56z"/>
<path class="st0" d="M589.05,510.73c18.22-162.72,85.76-272.29,143.71-338.41c4.79-5.4,9.58-10.64,14.37-15.72
	c-8.01-5.97-16.33-11.61-24.74-17.01c-3.85,4.11-7.69,8.31-11.39,12.58c-49.47,56.28-105.39,142.48-135.07,263.75
	c-9.11-48.94-21.83-96.19-38.09-141.19c32.2-73.94,72.17-131.03,108.92-173.28c-9.89-3.79-20.03-7.18-30.24-10.24
	c-31.65,37.74-64.86,85.79-93.53,145.3c-20.65-49.35-45.78-95.47-75-137.24c-4.79-6.77-9.58-13.47-14.53-19.92
	c-22.62,3.55-44.6,9.03-65.89,16.05c51.04,60.64,92.59,137.4,121.09,225.04c-10.52,30.88-19.55,64.02-26.7,99.66
	c-20.1-94.02-56.15-180.29-106.33-252.06c-12.88-18.38-26.39-35.48-40.52-51.2c-18.93,9.35-37.14,20.08-54.42,32.09
	c80.65,83.78,137.74,212.95,153.92,361.71h63.85c4.79-50.39,13.51-96.6,25.13-138.77c11.31,44.19,19.32,90.63,23.72,138.77h61.72
	V510.73z"/>
<path class="st0" d="M699.86,510.73c17.51-127.08,71.22-213.43,117.72-266.33c3.22-3.63,6.44-7.18,9.66-10.56
	c-6.28-7.82-12.8-15.48-19.63-22.82c-65.5,68.86-120.31,168.84-137.35,299.79h29.61V510.73z"/>
<path class="st0" d="M811.29,510.73c14.06-78.78,45.63-136.51,76.33-176.34c-4.4-10.16-9.11-20.08-14.22-29.83
	c-42.64,51.2-77.59,119.9-91.88,206.18H811.29z"/>
<path class="st0" d="M918.17,440.18c-10.13,21.29-18.53,44.83-24.42,70.55h29.92C923.75,486.7,921.86,463.16,918.17,440.18z"/>
<path class="st0" d="M484.69,574.03h-24.34V685.3h66.75v-21.93h-42.41V574.03z"/>
<path class="st0" d="M661.69,574.03h-8.8V685.3h58.19v-8.14h-49.39V574.03z"/>
<path class="st0" d="M730.01,574.03h-8.79v111.19h8.79V574.03z"/>
<path class="st0" d="M872.31,677.16v-44.91h47.9v-7.9h-47.9v-42.17h51.44v-8.14h-60.23V685.3h62.04v-8.14H872.31z"/>
<path class="st0" d="M834.14,677.16h-1.8l-62.75-103.13h-15.86V685.3h8.79V582.17h2.12l62.75,103.13h15.47V574.03h-8.72V677.16z"/>
<path class="st0" d="M183.6,663.37h-1.81l-17.9-86.28h-25.29l-15.94,86.28h-2.36l-21.75-89.34H73.66l26.7,111.27h37.3l13.43-67.81
	l14.45,67.81h38.09l23.72-111.27h-24.97L183.6,663.37z"/>
<path class="st0" d="M621.49,589.59c-11.54-11.61-26.7-16.53-44.05-16.45h-40.21v112.72h40.21c9.82,0,18.37-1.53,25.68-4.68
	c13.82-5.73,24.26-16.53,29.45-30.24c2.9-7.58,3.85-15.4,3.61-23.3C636.17,613.46,631.46,599.66,621.49,589.59z M608.53,644.42
	c-3.06,8.22-8.8,14.11-16.81,17.25c-4.08,1.61-8.64,2.34-13.82,2.34h-16.33v-69.02h16.33c5.18,0,9.74,0.72,13.82,2.1
	c8.09,2.82,13.75,8.63,16.81,16.77C611.59,622.48,611.67,635.71,608.53,644.42z"/>
<path class="st0" d="M310.82,575.64c-13.82-6.61-36.44-6.61-50.26,0c-13.74,6.21-24.03,17.5-29.06,31.53
	c-2.91,7.82-3.85,15.72-3.61,23.87c0.16,21.29,12.64,42.73,32.28,51.93c13.9,7.09,37.3,7.09,51.2,0
	c19.63-9.19,32.12-30.64,32.28-51.93c0.63-15.24-4.4-30.8-14.69-42.17C324.01,583.3,318.05,578.94,310.82,575.64z M285.77,665.54
	c-20.65,0-32.51-16.69-32.51-36.04c0-20.08,11.15-36.04,32.51-36.04c18.14,0,32.51,12.82,32.51,36.04
	C318.28,649.01,306.19,665.54,285.77,665.54z"/>
<path class="st0" d="M437.33,633.37c4.01-5.8,5.73-14.35,5.42-22.9c0-8.22-1.81-15.08-5.34-20.64
	c-8.4-12.74-23.09-16.53-38.71-16.69h-42.56V685.3h24.34v-34.43c0.47,0,17.9,0,18.45,0l23.01,34.43h28.19l-27.64-39.83
	C428.77,642.73,433.72,638.78,437.33,633.37z M415.11,621.52c-3.22,5.72-8.64,8.47-15.31,8.47h-19.4v-35h19.48
	c3.53,0,6.6,0.08,9.19,1.53c2.59,1.45,4.63,3.55,6.05,6.21C418.09,607.89,418.17,616.28,415.11,621.52z"/>

</svg>
